<svg width="16" height="16" viewBox="0 0 16 16" fill="none" xmlns="http://www.w3.org/2000/svg">
<path fill-rule="evenodd" clip-rule="evenodd" d="M13.5725 6.99816H3.04781V4.67325C3.04781 4.26185 3.3749 3.92796 3.77794 3.92796H4.55168V5.46306H6.05555V3.92796H10.5648V5.46306H12.0686V3.92796H12.8206C13.2356 3.92796 13.5725 4.27182 13.5725 4.69551V6.99816ZM13.5725 12.371C13.5725 12.7932 13.2341 13.1386 12.8206 13.1386H3.79975C3.38468 13.1386 3.04781 12.7947 3.04781 12.371V8.53327H13.5725V12.371ZM1.59207 12.9551C1.59207 13.8025 2.31317 14.6737 3.14331 14.6737H13.668C14.4989 14.6737 15.1004 13.89 15.1004 12.9551C15.1004 12.6565 15.0764 4.97183 15.0764 4.47139C15.0764 2.87335 14.8651 2.39286 12.0686 2.39286V0.857758H10.5648V2.39286H6.05555V0.857758H4.55168V2.39286H3.04782C2.22069 2.39286 1.54395 3.08366 1.54395 3.92796L1.59207 12.9551Z" fill="white" fill-opacity="0.01"/>
<mask id="mask0" mask-type="alpha" maskUnits="userSpaceOnUse" x="1" y="0" width="15" height="15">
<path fill-rule="evenodd" clip-rule="evenodd" d="M13.5725 6.99816H3.04781V4.67325C3.04781 4.26185 3.3749 3.92796 3.77794 3.92796H4.55168V5.46306H6.05555V3.92796H10.5648V5.46306H12.0686V3.92796H12.8206C13.2356 3.92796 13.5725 4.27182 13.5725 4.69551V6.99816ZM13.5725 12.371C13.5725 12.7932 13.2341 13.1386 12.8206 13.1386H3.79975C3.38468 13.1386 3.04781 12.7947 3.04781 12.371V8.53327H13.5725V12.371ZM1.59207 12.9551C1.59207 13.8025 2.31317 14.6737 3.14331 14.6737H13.668C14.4989 14.6737 15.1004 13.89 15.1004 12.9551C15.1004 12.6565 15.0764 4.97183 15.0764 4.47139C15.0764 2.87335 14.8651 2.39286 12.0686 2.39286V0.857758H10.5648V2.39286H6.05555V0.857758H4.55168V2.39286H3.04782C2.22069 2.39286 1.54395 3.08366 1.54395 3.92796L1.59207 12.9551Z" fill="white"/>
</mask>
<g mask="url(#mask0)">
<rect opacity="0.5" x="0.0377197" y="-0.677338" width="16.569" height="16.8861" fill="#9EA0A5"/>
</g>
</svg>
