<svg width="18" height="18" viewBox="0 0 18 18" fill="none" xmlns="http://www.w3.org/2000/svg">
<path d="M7.90944 1.8285C8.04707 1.98128 8.21526 2.10343 8.40312 2.18704C8.59098 2.27065 8.79431 2.31386 8.99994 2.31386C9.20557 2.31386 9.4089 2.27065 9.59676 2.18704C9.78461 2.10343 9.95281 1.98128 10.0904 1.8285L10.7999 1.05C11.0033 0.824957 11.2713 0.668358 11.5672 0.601697C11.8631 0.535036 12.1723 0.56158 12.4525 0.677687C12.7327 0.793793 12.9701 0.993771 13.1321 1.25017C13.2942 1.50658 13.3729 1.80684 13.3574 2.10975L13.3042 3.15975C13.2939 3.36458 13.3266 3.5693 13.4002 3.76071C13.4739 3.95213 13.5868 4.126 13.7317 4.27113C13.8766 4.41625 14.0503 4.52941 14.2416 4.60332C14.4329 4.67723 14.6376 4.71025 14.8424 4.70025L15.8924 4.647C16.1952 4.63208 16.4951 4.71114 16.7511 4.87334C17.0071 5.03555 17.2067 5.27297 17.3225 5.55305C17.4384 5.83314 17.4647 6.14218 17.398 6.43784C17.3313 6.73349 17.1748 7.00128 16.9499 7.2045L16.1684 7.9095C16.0159 8.04732 15.8939 8.21563 15.8104 8.40353C15.7269 8.59143 15.6838 8.79476 15.6838 9.00038C15.6838 9.20599 15.7269 9.40932 15.8104 9.59722C15.8939 9.78513 16.0159 9.95343 16.1684 10.0913L16.9499 10.7963C17.175 10.9996 17.3316 11.2676 17.3982 11.5635C17.4649 11.8594 17.4384 12.1686 17.3223 12.4488C17.2061 12.729 17.0062 12.9664 16.7498 13.1285C16.4934 13.2905 16.1931 13.3692 15.8902 13.3538L14.8402 13.3005C14.6349 13.2899 14.4297 13.3226 14.2378 13.3964C14.046 13.4701 13.8717 13.5833 13.7264 13.7287C13.581 13.874 13.4678 14.0483 13.394 14.2401C13.3203 14.432 13.2876 14.6372 13.2982 14.8425L13.3514 15.8925C13.3649 16.1939 13.2852 16.4921 13.1232 16.7466C12.9613 17.0012 12.7249 17.1997 12.4462 17.3152C12.1675 17.4307 11.86 17.4576 11.5655 17.3923C11.2709 17.3269 11.0037 17.1725 10.7999 16.95L10.0942 16.1693C9.95643 16.0167 9.7882 15.8947 9.60036 15.8112C9.41251 15.7278 9.20924 15.6846 9.00369 15.6846C8.79813 15.6846 8.59487 15.7278 8.40702 15.8112C8.21918 15.8947 8.05094 16.0167 7.91319 16.1693L7.20444 16.95C7.00105 17.1736 6.73366 17.329 6.43872 17.395C6.14379 17.4611 5.83566 17.4345 5.55635 17.3191C5.27703 17.2036 5.04012 17.0048 4.87792 16.7498C4.71571 16.4948 4.6361 16.1959 4.64994 15.894L4.70394 14.844C4.7145 14.6387 4.68184 14.4335 4.60809 14.2416C4.53433 14.0498 4.42111 13.8755 4.27576 13.7302C4.13041 13.5848 3.95617 13.4716 3.7643 13.3979C3.57244 13.3241 3.36722 13.2914 3.16194 13.302L2.11194 13.3553C1.80915 13.3711 1.5089 13.2927 1.25239 13.1311C0.99589 12.9694 0.795715 12.7323 0.679351 12.4523C0.562987 12.1724 0.536139 11.8632 0.602492 11.5674C0.668845 11.2715 0.825147 11.0035 1.04994 10.8L1.83069 10.095C1.98327 9.95718 2.10525 9.78888 2.18873 9.60097C2.27222 9.41307 2.31535 9.20974 2.31535 9.00413C2.31535 8.79851 2.27222 8.59518 2.18873 8.40728C2.10525 8.21938 1.98327 8.05107 1.83069 7.91325L1.04994 7.2045C0.825876 7.00125 0.670051 6.73376 0.603765 6.4386C0.537479 6.14344 0.563966 5.83501 0.679606 5.55547C0.795246 5.27593 0.994395 5.03893 1.24983 4.87686C1.50527 4.71479 1.80452 4.63556 2.10669 4.65L3.15669 4.70325C3.36236 4.71406 3.56801 4.68149 3.76027 4.60766C3.95254 4.53382 4.12712 4.42036 4.27268 4.27466C4.41824 4.12896 4.53153 3.95426 4.60518 3.76193C4.67883 3.56959 4.7112 3.36391 4.70019 3.15825L4.64994 2.1075C4.63577 1.80545 4.71514 1.50638 4.87722 1.25111C5.0393 0.995832 5.2762 0.796784 5.55559 0.681124C5.83498 0.565463 6.14325 0.538824 6.43834 0.604841C6.73343 0.670858 7.00097 0.826316 7.20444 1.05L7.90944 1.8285Z" stroke="#3C3C3C" stroke-linecap="round" stroke-linejoin="round"/>
<path d="M9 12.3757C10.864 12.3757 12.375 10.8647 12.375 9.00075C12.375 7.13679 10.864 5.62575 9 5.62575C7.13604 5.62575 5.625 7.13679 5.625 9.00075C5.625 10.8647 7.13604 12.3757 9 12.3757Z" stroke="#3C3C3C" stroke-linecap="round" stroke-linejoin="round"/>
</svg>
