<svg width="19" height="12" viewBox="0 0 19 12" fill="none" xmlns="http://www.w3.org/2000/svg">
<path fill-rule="evenodd" clip-rule="evenodd" d="M0.208242 6.7184C1.19697 8.30488 2.52684 9.59285 4.19871 10.5449C5.87057 11.5152 7.63809 12 9.49958 12C11.3619 12 13.1294 11.5152 14.8013 10.5632C16.4732 9.59285 17.803 8.32317 18.7909 6.7184C18.9238 6.47561 19 6.23282 19 6.00915C19 5.76635 18.9238 5.52439 18.7909 5.2816C17.803 3.69512 16.4732 2.40715 14.8013 1.4551C13.1294 0.484756 11.3619 0 9.49958 0C7.63809 0 5.87057 0.484756 4.19871 1.4551C2.52684 2.40715 1.19697 3.69512 0.208242 5.2816C0.0753397 5.52439 0 5.76635 0 6.00915C0 6.23282 0.0753397 6.47561 0.208242 6.7184ZM5.39569 2.31402C4.95889 3.04157 4.7498 3.82567 4.7498 4.66547C4.7498 5.95344 5.20607 7.05432 6.13639 7.96896C7.06756 8.88359 8.18919 9.33176 9.49959 9.33176C10.8108 9.33176 11.9316 8.88359 12.8442 7.96896C13.7753 7.05432 14.2502 5.95344 14.2502 4.66547C14.2502 3.82567 14.0217 3.04157 13.6043 2.31402C15.2195 3.13553 16.568 4.36696 17.632 6.00915C16.7009 7.42766 15.5234 8.56596 14.0979 9.40576C12.6918 10.2456 11.1528 10.6754 9.49959 10.6754C7.8472 10.6754 6.30823 10.2456 4.88271 9.40576C3.47665 8.56596 2.2983 7.42766 1.34851 6.00915C2.43205 4.36696 3.78054 3.13553 5.39569 2.31402ZM7.21993 2.42627C7.8472 1.81014 8.60652 1.49252 9.49959 1.49252C9.63334 1.49252 9.74677 1.54906 9.86105 1.64218C9.95586 1.73531 9.99396 1.84756 9.99396 1.9964C9.99396 2.12694 9.95586 2.25831 9.86105 2.35144C9.74677 2.44457 9.63334 2.50028 9.49959 2.50028C8.89179 2.50028 8.36018 2.70565 7.94201 3.13553C7.50521 3.56458 7.29612 4.06846 7.29612 4.66547C7.29612 4.81513 7.23855 4.92655 7.14374 5.02051C7.04893 5.11364 6.91603 5.16935 6.78313 5.16935C6.63076 5.16935 6.51732 5.11364 6.42167 5.02051C6.32686 4.92655 6.27014 4.81513 6.27014 4.66547C6.27014 3.78825 6.59266 3.04157 7.21993 2.42627Z" fill="#BEBEBE"/>
</svg>
