<svg width="20" height="20" viewBox="0 0 20 20" fill="none" xmlns="http://www.w3.org/2000/svg">
<path d="M8.62914 1H1.41722C1.17881 1 1 1.18182 1 1.42424V8.57576C1 8.81818 1.17881 9 1.41722 9H8.45033C8.68874 9 8.86755 8.81818 8.86755 8.57576V1.24242C8.86755 1.12121 8.74835 1 8.62914 1Z" stroke="#3C3C3C" stroke-miterlimit="10" stroke-linecap="round" stroke-linejoin="round"/>
<path d="M18.762 1H11.55C11.3116 1 11.1328 1.18182 11.1328 1.42424V8.57576C11.1328 8.81818 11.3116 9 11.55 9H18.5831C18.8216 9 19.0004 8.81818 19.0004 8.57576V1.24242C19.0004 1.12121 18.8812 1 18.762 1Z" stroke="#3C3C3C" stroke-miterlimit="10" stroke-linecap="round" stroke-linejoin="round"/>
<path d="M8.62914 11H1.41722C1.17881 11 1 11.1818 1 11.4242V18.5758C1 18.8182 1.17881 19 1.41722 19H8.45033C8.68874 19 8.86755 18.8182 8.86755 18.5758V11.2424C8.86755 11.1212 8.74835 11 8.62914 11Z" stroke="#3C3C3C" stroke-miterlimit="10" stroke-linecap="round" stroke-linejoin="round"/>
<path d="M18.762 11H11.55C11.3116 11 11.1328 11.1818 11.1328 11.4242V18.5758C11.1328 18.8182 11.3116 19 11.55 19H18.5831C18.8216 19 19.0004 18.8182 19.0004 18.5758V11.2424C19.0004 11.1212 18.8812 11 18.762 11Z" stroke="#3C3C3C" stroke-miterlimit="10" stroke-linecap="round" stroke-linejoin="round"/>
</svg>
