<svg width="18" height="18" viewBox="0 0 18 18" fill="none" xmlns="http://www.w3.org/2000/svg">
<path d="M11.8125 6.10724V7.31249" stroke="#3C3C3C" stroke-linecap="round" stroke-linejoin="round"/>
<path d="M6.1875 11.8125H7.39275" stroke="#3C3C3C" stroke-linecap="round" stroke-linejoin="round"/>
<path d="M17.4377 11.8125H16.2324" stroke="#3C3C3C" stroke-linecap="round" stroke-linejoin="round"/>
<path d="M7.17285 8.13751L8.1966 9.16051" stroke="#3C3C3C" stroke-linecap="round" stroke-linejoin="round"/>
<path d="M16.4525 8.13751L15.4287 9.16051" stroke="#3C3C3C" stroke-linecap="round" stroke-linejoin="round"/>
<path d="M14.625 11.8125C14.6255 11.3053 14.4889 10.8074 14.2296 10.3716C13.9703 9.93567 13.5979 9.57803 13.1519 9.33648C12.7059 9.09494 12.2029 8.9785 11.6962 8.99948C11.1894 9.02046 10.6978 9.17808 10.2733 9.45566C9.84877 9.73323 9.50724 10.1204 9.28483 10.5763C9.06243 11.0321 8.96742 11.5396 9.00987 12.045C9.05232 12.5504 9.23066 13.0349 9.52599 13.4473C9.82132 13.8596 10.2227 14.1844 10.6875 14.3873V15.75H12.9375V14.3873C13.4388 14.1688 13.8654 13.8089 14.1652 13.3515C14.4649 12.8942 14.6247 12.3593 14.625 11.8125V11.8125Z" stroke="#3C3C3C" stroke-linecap="round" stroke-linejoin="round"/>
<path d="M10.6875 17.4375H12.9375" stroke="#3C3C3C" stroke-linecap="round" stroke-linejoin="round"/>
<path d="M14.625 5.0625V1.401C14.623 1.17754 14.5327 0.963941 14.3738 0.80684C14.2149 0.649739 14.0002 0.5619 13.7767 0.562503H1.40625C1.18397 0.5619 0.970488 0.649265 0.812404 0.805522C0.65432 0.961779 0.56448 1.17424 0.5625 1.3965V11.5358C0.564283 11.7593 0.654511 11.9731 0.81346 12.1304C0.972409 12.2877 1.18715 12.3756 1.41075 12.375H3.9375" stroke="#3C3C3C" stroke-linecap="round" stroke-linejoin="round"/>
<path d="M0.5625 3.375H14.625" stroke="#3C3C3C" stroke-linecap="round" stroke-linejoin="round"/>
</svg>
