<svg width="18" height="18" viewBox="0 0 18 18" fill="none" xmlns="http://www.w3.org/2000/svg">
<path d="M11.25 6.19501C12.182 6.19501 12.9375 5.43949 12.9375 4.50751C12.9375 3.57553 12.182 2.82001 11.25 2.82001C10.318 2.82001 9.5625 3.57553 9.5625 4.50751C9.5625 5.43949 10.318 6.19501 11.25 6.19501Z" stroke="#00711F" stroke-linecap="round" stroke-linejoin="round"/>
<path d="M11.25 6.75751C11.9959 6.75751 12.7113 7.05382 13.2387 7.58127C13.7662 8.10872 14.0625 8.82409 14.0625 9.57001" stroke="#00711F" stroke-linecap="round" stroke-linejoin="round"/>
<path d="M1.6875 3.38251V1.69501C1.6875 1.39664 1.80603 1.11049 2.017 0.899512C2.22798 0.688534 2.51413 0.570007 2.8125 0.570007H16.3125C16.6109 0.570007 16.897 0.688534 17.108 0.899512C17.319 1.11049 17.4375 1.39664 17.4375 1.69501V10.695C17.4375 10.9934 17.319 11.2795 17.108 11.4905C16.897 11.7015 16.6109 11.82 16.3125 11.82H10.6875" stroke="#00711F" stroke-linecap="round" stroke-linejoin="round"/>
<path d="M12.9375 11.82V14.07" stroke="#00711F" stroke-linecap="round" stroke-linejoin="round"/>
<path d="M11.8125 14.07H14.625" stroke="#00711F" stroke-linecap="round" stroke-linejoin="round"/>
<path d="M0.5625 17.445C0.5625 16.1023 1.09587 14.8147 2.04527 13.8653C2.99467 12.9159 4.28234 12.3825 5.625 12.3825C6.96766 12.3825 8.25533 12.9159 9.20473 13.8653C10.1541 14.8147 10.6875 16.1023 10.6875 17.445" stroke="#00711F" stroke-linecap="round" stroke-linejoin="round"/>
<path d="M5.625 11.2575C7.33363 11.2575 8.71875 9.87239 8.71875 8.16376C8.71875 6.45513 7.33363 5.07001 5.625 5.07001C3.91637 5.07001 2.53125 6.45513 2.53125 8.16376C2.53125 9.87239 3.91637 11.2575 5.625 11.2575Z" stroke="#00711F" stroke-linecap="round" stroke-linejoin="round"/>
</svg>
