<svg width="18" height="18" viewBox="0 0 18 18" fill="none" xmlns="http://www.w3.org/2000/svg">
<path d="M13.5 16.0312C14.1213 16.0312 14.625 15.5276 14.625 14.9062C14.625 14.2849 14.1213 13.7812 13.5 13.7812C12.8787 13.7812 12.375 14.2849 12.375 14.9062C12.375 15.5276 12.8787 16.0312 13.5 16.0312Z" stroke="#3C3C3C" stroke-linecap="round" stroke-linejoin="round"/>
<path d="M3.9375 16.0312C4.55882 16.0312 5.0625 15.5276 5.0625 14.9062C5.0625 14.2849 4.55882 13.7812 3.9375 13.7812C3.31618 13.7812 2.8125 14.2849 2.8125 14.9062C2.8125 15.5276 3.31618 16.0312 3.9375 16.0312Z" stroke="#3C3C3C" stroke-linecap="round" stroke-linejoin="round"/>
<path d="M10.6875 11.5312H1.296C1.10146 11.5313 0.914895 11.6085 0.777337 11.7461C0.639779 11.8836 0.5625 12.0702 0.5625 12.2648V13.7812C0.5625 14.0796 0.681026 14.3658 0.892005 14.5767C1.10298 14.7877 1.38913 14.9062 1.6875 14.9062H2.8125" stroke="#3C3C3C" stroke-linecap="round" stroke-linejoin="round"/>
<path d="M17.4375 9.28125H13.6875C13.494 9.2865 13.3063 9.21472 13.1657 9.08169C13.0251 8.94866 12.943 8.76525 12.9375 8.57175V4.78125" stroke="#3C3C3C" stroke-linecap="round" stroke-linejoin="round"/>
<path d="M10.6875 14.9062H5.0625" stroke="#3C3C3C" stroke-linecap="round" stroke-linejoin="round"/>
<path d="M17.4375 12.6562H15.9697" stroke="#3C3C3C" stroke-linecap="round" stroke-linejoin="round"/>
<path d="M14.625 14.9062H16.3125C16.6109 14.9062 16.897 14.7877 17.108 14.5767C17.319 14.3658 17.4375 14.0796 17.4375 13.7812V8.15625C17.4375 7.26114 17.0819 6.4027 16.449 5.76976C15.816 5.13683 14.9576 4.78125 14.0625 4.78125H10.6875V14.9062H12.375" stroke="#3C3C3C" stroke-linecap="round" stroke-linejoin="round"/>
<path d="M10.6875 4.78125V4.29825C10.688 3.92734 10.5967 3.56207 10.4219 3.23494C10.2471 2.90782 9.99412 2.62898 9.6855 2.42325L9 1.96875" stroke="#3C3C3C" stroke-linecap="round" stroke-linejoin="round"/>
</svg>
