<svg width="18" height="18" viewBox="0 0 18 18" fill="none" xmlns="http://www.w3.org/2000/svg">
<path d="M8.625 5.625C10.023 5.625 11.1562 4.49172 11.1562 3.09375C11.1562 1.69578 10.023 0.5625 8.625 0.5625C7.22703 0.5625 6.09375 1.69578 6.09375 3.09375C6.09375 4.49172 7.22703 5.625 8.625 5.625Z" stroke="#3C3C3C" stroke-width="0.8" stroke-linecap="round" stroke-linejoin="round"/>
<path d="M11.6647 7.875C10.8327 7.11926 9.74897 6.70055 8.62496 6.70055C7.50094 6.70055 6.41723 7.11926 5.58521 7.875" stroke="#3C3C3C" stroke-width="0.8" stroke-linecap="round" stroke-linejoin="round"/>
<path d="M11.1562 3.177C10.6991 3.30873 10.2257 3.37538 9.74998 3.375C8.48055 3.37689 7.25712 2.89989 6.32397 2.03925" stroke="#3C3C3C" stroke-width="0.8" stroke-linecap="round" stroke-linejoin="round"/>
<path d="M13.875 14.625C15.273 14.625 16.4062 13.4917 16.4062 12.0938C16.4062 10.6958 15.273 9.5625 13.875 9.5625C12.477 9.5625 11.3438 10.6958 11.3438 12.0938C11.3438 13.4917 12.477 14.625 13.875 14.625Z" stroke="#3C3C3C" stroke-width="0.8" stroke-linecap="round" stroke-linejoin="round"/>
<path d="M17.4375 17.4375C17.0148 16.8961 16.4743 16.4581 15.857 16.1569C15.2397 15.8556 14.5619 15.6991 13.875 15.6991C13.1881 15.6991 12.5103 15.8556 11.893 16.1569C11.2757 16.4581 10.7352 16.8961 10.3125 17.4375" stroke="#3C3C3C" stroke-width="0.8" stroke-linecap="round" stroke-linejoin="round"/>
<path d="M16.4062 12.177C15.5708 12.4176 14.6875 12.4393 13.8413 12.24C12.9951 12.0408 12.2143 11.6273 11.574 11.0393" stroke="#3C3C3C" stroke-width="0.8" stroke-linecap="round" stroke-linejoin="round"/>
<path d="M4.125 14.625C5.52297 14.625 6.65625 13.4917 6.65625 12.0938C6.65625 10.6958 5.52297 9.5625 4.125 9.5625C2.72703 9.5625 1.59375 10.6958 1.59375 12.0938C1.59375 13.4917 2.72703 14.625 4.125 14.625Z" stroke="#3C3C3C" stroke-width="0.8" stroke-linecap="round" stroke-linejoin="round"/>
<path d="M7.68677 17.4375C7.2641 16.8961 6.72358 16.4581 6.10628 16.1569C5.48898 15.8556 4.81114 15.6991 4.12427 15.6991C3.43739 15.6991 2.75956 15.8556 2.14226 16.1569C1.52496 16.4581 0.984438 16.8961 0.561768 17.4375" stroke="#3C3C3C" stroke-width="0.8" stroke-linecap="round" stroke-linejoin="round"/>
<path d="M6.65622 12.177C5.8208 12.4176 4.93755 12.4393 4.09132 12.24C3.24509 12.0408 2.4643 11.6273 1.82397 11.0393" stroke="#3C3C3C" stroke-width="0.8" stroke-linecap="round" stroke-linejoin="round"/>
</svg>
